ply
format ascii 1.0
element vertex 68
property float x
property float y
property float z
property uchar red
property uchar green
property uchar blue
element face 128
property list uchar int vertex_indices
end_header
-0.207867 -0.138892 1.000000 255 0 0
-0.176777 -0.176777 1.000000 255 0 0
0.000000 0.000000 1.500000 255 0 0
-0.230970 -0.095671 1.000000 255 0 0
-0.245196 -0.048772 1.000000 255 0 0
-0.250000 0.000000 1.000000 255 0 0
-0.245196 0.048773 1.000000 255 0 0
-0.230970 0.095671 1.000000 255 0 0
-0.207867 0.138893 1.000000 255 0 0
-0.176777 0.176777 1.000000 255 0 0
-0.138892 0.207868 1.000000 255 0 0
-0.095671 0.230970 1.000000 255 0 0
-0.048772 0.245196 1.000000 255 0 0
0.000000 0.250000 1.000000 255 0 0
0.048773 0.245196 1.000000 255 0 0
0.095671 0.230970 1.000000 255 0 0
0.138893 0.207867 1.000000 255 0 0
0.176777 0.176777 1.000000 255 0 0
0.207868 0.138893 1.000000 255 0 0
0.230970 0.095671 1.000000 255 0 0
0.245196 0.048773 1.000000 255 0 0
0.250000 -0.000000 1.000000 255 0 0
0.245196 -0.048773 1.000000 255 0 0
0.230970 -0.095671 1.000000 255 0 0
0.207867 -0.138893 1.000000 255 0 0
0.176777 -0.176777 1.000000 255 0 0
0.138892 -0.207867 1.000000 255 0 0
0.095671 -0.230970 1.000000 255 0 0
0.048772 -0.245196 1.000000 255 0 0
-0.000000 -0.250000 1.000000 255 0 0
-0.048773 -0.245196 1.000000 255 0 0
-0.095671 -0.230970 1.000000 255 0 0
-0.138893 -0.207867 1.000000 255 0 0
0.000000 0.000000 1.000000 255 0 0
0.062500 0.062500 0.000000 255 0 0
0.081660 0.033825 0.000000 255 0 0
0.088388 -0.000000 0.000000 255 0 0
0.081660 -0.033825 0.000000 255 0 0
0.062500 -0.062500 0.000000 255 0 0
0.033825 -0.081660 0.000000 255 0 0
0.000000 -0.088388 0.000000 255 0 0
-0.033825 -0.081660 0.000000 255 0 0
-0.062500 -0.062500 0.000000 255 0 0
-0.081660 -0.033825 0.000000 255 0 0
-0.088388 0.000000 0.000000 255 0 0
-0.081660 0.033825 0.000000 255 0 0
-0.062500 0.062500 0.000000 255 0 0
-0.033825 0.081660 0.000000 255 0 0
0.000000 0.088388 0.000000 255 0 0
0.033825 0.081660 0.000000 255 0 0
0.062500 0.062500 1.000000 255 0 0
0.081660 0.033825 1.000000 255 0 0
0.088388 -0.000000 1.000000 255 0 0
0.081660 -0.033825 1.000000 255 0 0
0.062500 -0.062500 1.000000 255 0 0
0.033825 -0.081660 1.000000 255 0 0
-0.000000 -0.088388 1.000000 255 0 0
-0.033825 -0.081660 1.000000 255 0 0
-0.062500 -0.062500 1.000000 255 0 0
-0.081660 -0.033825 1.000000 255 0 0
-0.088388 0.000000 1.00000 255 0 0
-0.081660 0.033825 1.000000 255 0 0
-0.062500 0.062500 1.000000 255 0 0
-0.033824 0.081661 1.000000 255 0 0
0.000000 0.088388 1.000000 255 0 0
0.033825 0.081660 1.000000 255 0 0
0.000000 0.000000 0.000000 255 0 0
0.000000 0.000000 1.000000 255 0 0
3 0 1 2
3 2 3 0
3 2 4 3
3 2 5 4
3 2 6 5
3 2 7 6
3 2 8 7
3 2 9 8
3 2 10 9
3 2 11 10
3 2 12 11
3 2 13 12
3 2 14 13
3 2 15 14
3 2 16 15
3 2 17 16
3 2 18 17
3 2 19 18
3 2 20 19
3 2 21 20
3 2 22 21
3 2 23 22
3 2 24 23
3 2 25 24
3 2 26 25
3 2 27 26
3 2 28 27
3 2 29 28
3 2 30 29
3 2 31 30
3 2 32 31
3 2 1 32
3 33 1 0
3 33 0 3
3 33 3 4
3 33 4 5
3 33 5 6
3 33 6 7
3 33 7 8
3 33 8 9
3 33 9 10
3 33 10 11
3 33 11 12
3 33 12 13
3 33 13 14
3 33 14 15
3 33 15 16
3 33 16 17
3 33 17 18
3 33 18 19
3 33 19 20
3 33 20 21
3 33 21 22
3 33 22 23
3 33 23 24
3 33 24 25
3 33 25 26
3 33 26 27
3 33 27 28
3 33 28 29
3 33 29 30
3 33 30 31
3 33 31 32
3 32 1 33
3 66 34 35
3 67 51 50
3 66 35 36
3 67 52 51
3 66 36 37
3 67 53 52
3 66 37 38
3 67 54 53
3 66 38 39
3 67 55 54
3 66 39 40
3 67 56 55
3 66 40 41
3 67 57 56
3 66 41 42
3 67 58 57
3 66 42 43
3 67 59 58
3 66 43 44
3 67 60 59
3 66 44 45
3 67 61 60
3 66 45 46
3 67 62 61
3 66 46 47
3 67 63 62
3 66 47 48
3 67 64 63
3 66 48 49
3 67 65 64
3 49 34 66
3 67 50 65
3 34 50 51
3 34 51 35
3 35 51 52
3 35 52 36
3 36 52 53
3 36 53 37
3 37 53 54
3 37 54 38
3 38 54 55
3 38 55 39
3 39 55 56
3 39 56 40
3 40 56 57
3 40 57 41
3 41 57 58
3 41 58 42
3 42 58 59
3 42 59 43
3 43 59 60
3 43 60 44
3 44 60 61
3 44 61 45
3 45 61 62
3 45 62 46
3 46 62 63
3 46 63 47
3 47 63 64
3 47 64 48
3 48 64 65
3 48 65 49
3 50 34 49
3 50 49 65
